<?xml version="1.0" encoding="utf-8"?>
<svg
  version="1.1"
  xmlns="http://www.w3.org/2000/svg"
  xmlns:xlink="http://www.w3.org/1999/xlink"
  x="0px"
  y="0px"
  viewBox="0 0 3061.4 5669.3"
  style="enable-background: new 0 0 3061.4 5669.3"
  xml:space="preserve"
>
  <style type="text/css">
    .st0 {
      fill: #fffa94;
    }
    .st1 {
      fill: #f4ca45;
    }
    .st2 {
      fill: #ffe35a;
    }
    .st3 {
      fill: #353535;
    }
    .st4 {
      fill: #ffffff;
    }
  </style>
  <g>
    <g>
      <rect class="st0" width="3061.4" height="1855.2" />
      <polygon
        class="st1"
        points="1530.7,1324 674.4,1330.7 0,3128.2 0,0 3061.4,0 3061.4,180 		"
      />
      <polygon
        class="st2"
        points="1268.6,2056.2 856.9,2056.3 294,3558.2 0,3558.2 972.5,988.2 0,988 0,724.9 3061.4,724.9 		"
      />
      <polygon
        class="st1"
        points="1030.4,1329.4 1159.5,988.2 3061.4,988.2 3061.4,1329.4 		"
      />
    </g>
    <g>
      <rect y="3814.1" class="st0" width="3061.4" height="1855.2" />
      <polygon
        class="st1"
        points="1530.7,4345.3 2387.1,4338.6 3061.4,2541.1 3061.4,5669.3 0,5669.3 0,5489.3 		"
      />
      <polygon
        class="st2"
        points="1792.8,3613.1 2204.5,3613 2767.4,2111.1 3061.4,2111.1 2088.9,4681.1 3061.4,4681.3 3061.4,4944.4 
			0,4944.4 		"
      />
      <polygon
        class="st1"
        points="2031,4339.9 1901.9,4681.1 0,4681.1 0,4339.9 		"
      />
    </g>
    <g>
      <g>
        <path
          class="st3"
          d="M935.9,2990.2l75.4-132.6c31.6,30.4,73,58.4,128.9,58.4c76.6,0,126.5-51.1,126.5-130.1v-491.6l81.1,48.9
				l91.6-199.9v644.9c0,192.2-119.2,281-285.8,281C1072.1,3069.2,994.3,3047.3,935.9,2990.2z"
        />
        <path
          class="st3"
          d="M1539.2,2964.6l80.3-125.3c45,49.9,115.5,86.4,195.8,86.4c71.8,0,110.7-40.1,110.7-90
				c0-142.3-362.5-93.7-362.5-368.5c0-127.7,99.7-237.2,267.6-237.2c98.5,0,183.7,31.6,245.7,90l-77.8,121.6
				c-48.7-46.2-110.7-68.1-173.9-68.1c-58.4,0-94.9,32.8-94.9,82.7c0,126.5,361.2,92.4,361.2,366.1c0,142.3-97.3,246.9-274.9,246.9
				C1693.6,3069.2,1603.6,3029.1,1539.2,2964.6z"
        />
        <g>
          <path
            class="st3"
            d="M935.9,3407.9V3178H1051c51.7,0,80,34.8,80,76.5c0,41.4-28.3,76.2-80,76.2h-55.8v77.2H935.9z
					 M1070.6,3254.6c0-15.9-11.7-24.8-27.6-24.8h-47.9v49.3h47.9C1058.9,3279,1070.6,3270.1,1070.6,3254.6z"
          />
          <path
            class="st3"
            d="M1171.3,3407.9V3178h168.6v51.7h-109.3v35.8h106.9v51.7h-106.9v39h109.3v51.7H1171.3z"
          />
          <path
            class="st3"
            d="M1544.6,3407.9l-97.2-133v133h-59.3V3178h61l93.1,126.5V3178h59.6v229.9H1544.6z"
          />
          <path
            class="st3"
            d="M1649.7,3407.9v-47.2l97.9-131h-97.9V3178h176.1v47.2l-98.2,131h100.6v51.7H1649.7z"
          />
          <path
            class="st3"
            d="M2032.3,3407.9l-11.4-33.1h-90.7l-11.4,33.1h-67.2l86.5-229.9h74.5l86.9,229.9H2032.3z M1975.5,3236.6
					l-29.3,86.5h58.6L1975.5,3236.6z"
          />
        </g>
      </g>
    </g>
  </g>
  <g>
    <path
      class="st4"
      d="M820.7,5286.7v-77.5h-45v77.5h-20.3v-95.4h85.8v95.4H820.7z"
    />
    <path
      class="st4"
      d="M859.9,5286.7v-95.4h67.5v17.9h-47.2v20.2h46.2v17.9h-46.2v21.6h47.2v17.9H859.9z"
    />
    <path
      class="st4"
      d="M1008.6,5286.7v-40h-45v40h-20.3v-95.4h20.3v37.5h45v-37.5h20.4v95.4H1008.6z"
    />
    <path
      class="st4"
      d="M1041.2,5273.1l10.6-13.6c6.6,6.9,18.6,10.9,27.9,10.9c12.6,0,19.9-5,19.9-12.2c0-7.6-6.7-11-21-11h-19.3
		v-17.9h19.3c11.3,0,19.4-3.1,19.4-10.2c0-7.6-8.6-11.3-19.4-11.3c-9.3,0-19.2,3.4-25.9,9.9l-10.2-12.7c7.7-8.7,21.3-15.2,38-15.2
		c22.3,0,37.8,10,37.8,25.9c0,12-10.3,19.9-20.7,21.7c9.6,1,22.2,8.6,22.2,22.9c0,16.4-16.4,28-39.2,28
		C1062.9,5288.4,1048.2,5281.7,1041.2,5273.1z"
    />
    <path
      class="st4"
      d="M1135,5286.7v-95.4h67.5v17.9h-47.2v20.2h46.2v17.9h-46.2v21.6h47.2v17.9H1135z"
    />
    <path
      class="st4"
      d="M1283.7,5286.7v-40h-45v40h-20.3v-95.4h20.3v37.5h45v-37.5h20.4v95.4H1283.7z"
    />
    <path
      class="st4"
      d="M1318.3,5239.1c0-29.3,22.2-49.3,50.8-49.3c21,0,33.2,11.4,39.9,23.3l-17.4,8.6c-4-7.7-12.6-13.9-22.5-13.9
		c-17.3,0-29.9,13.3-29.9,31.3s12.6,31.3,29.9,31.3c9.9,0,18.4-6,22.5-13.9l17.4,8.4c-6.9,11.9-18.9,23.5-39.9,23.5
		C1340.5,5288.4,1318.3,5268.4,1318.3,5239.1z"
    />
    <path
      class="st4"
      d="M1477.8,5286.7l-28.9-38.2l-7.4,8.9v29.3h-20.3v-95.4h20.3v42.6l33.7-42.6h25l-37.9,44.8l40.5,50.6H1477.8z"
    />
    <path
      class="st4"
      d="M1507.5,5239.1c0-28.7,21-49.3,49.8-49.3c28.9,0,49.9,20.6,49.9,49.3s-21,49.3-49.9,49.3
		C1528.5,5288.4,1507.5,5267.8,1507.5,5239.1z M1586.3,5239.1c0-17.9-11.4-31.3-29-31.3s-28.9,13.4-28.9,31.3
		c0,17.7,11.3,31.3,28.9,31.3S1586.3,5256.8,1586.3,5239.1z"
    />
    <path
      class="st4"
      d="M1621.5,5286.7v-95.4h67.5v17.9h-47.2v20.2h46.2v17.9h-46.2v21.6h47.2v17.9H1621.5z"
    />
    <path
      class="st4"
      d="M1736.9,5239.1c0-29.3,22.2-49.3,50.8-49.3c21,0,33.2,11.4,39.9,23.3l-17.4,8.6c-4-7.7-12.6-13.9-22.5-13.9
		c-17.3,0-29.9,13.3-29.9,31.3s12.6,31.3,29.9,31.3c9.9,0,18.4-6,22.5-13.9l17.4,8.4c-6.9,11.9-18.9,23.5-39.9,23.5
		C1759,5288.4,1736.9,5268.4,1736.9,5239.1z"
    />
    <path
      class="st4"
      d="M1835.1,5239.1c0-28.7,21-49.3,49.8-49.3c28.9,0,49.9,20.6,49.9,49.3s-21,49.3-49.9,49.3
		C1856.1,5288.4,1835.1,5267.8,1835.1,5239.1z M1913.9,5239.1c0-17.9-11.4-31.3-29-31.3s-28.9,13.4-28.9,31.3
		c0,17.7,11.3,31.3,28.9,31.3S1913.9,5256.8,1913.9,5239.1z"
    />
    <path
      class="st4"
      d="M1944.5,5239.1c0-28.7,21-49.3,49.8-49.3c28.9,0,49.9,20.6,49.9,49.3s-21,49.3-49.9,49.3
		C1965.5,5288.4,1944.5,5267.8,1944.5,5239.1z M2023.3,5239.1c0-17.9-11.4-31.3-29-31.3s-28.9,13.4-28.9,31.3
		c0,17.7,11.3,31.3,28.9,31.3S2023.3,5256.8,2023.3,5239.1z"
    />
    <path
      class="st4"
      d="M2128.1,5191.3v17.9h-49.3v16.9h24.7c20.3,0,31.6,13.9,31.6,30.3c0,16.4-11.2,30.3-31.6,30.3h-45v-95.4H2128.1
		z M2078.8,5243.9v24.9h22c7.9,0,13.6-4.9,13.6-12.4c0-7.7-5.7-12.4-13.6-12.4H2078.8z"
    />
    <path
      class="st4"
      d="M2269.4,5191.3v77.5h8.7v35.5h-20.5v-17.6h-110v-95.4h20.3v77.5h30.3v-77.5h20.4v77.5h30.2v-77.5H2269.4z"
    />
    <path
      class="st4"
      d="M2289.9,5286.7v-95.4h67.5v17.9h-47.2v20.2h46.2v17.9h-46.2v21.6h47.2v17.9H2289.9z"
    />
    <path
      class="st4"
      d="M2368.6,5239.1c0-29.3,22.2-49.3,50.8-49.3c21,0,33.2,11.4,39.9,23.3l-17.4,8.6c-4-7.7-12.6-13.9-22.5-13.9
		c-17.3,0-29.9,13.3-29.9,31.3s12.6,31.3,29.9,31.3c9.9,0,18.4-6,22.5-13.9l17.4,8.4c-6.9,11.9-18.9,23.5-39.9,23.5
		C2390.8,5288.4,2368.6,5268.4,2368.6,5239.1z"
    />
    <path
      class="st4"
      d="M2493.5,5286.7v-77.5h-27.9v-17.9h76.1v17.9h-27.7v77.5H2493.5z"
    />
    <path
      class="st4"
      d="M2554.7,5286.7v-95.4h50.2c18.2,0,27.5,11.6,27.5,24.3c0,12-7.4,20-16.4,21.9c10.2,1.6,18.3,11.4,18.3,23.5
		c0,14.3-9.6,25.7-27.7,25.7H2554.7z M2611.6,5219.2c0-6-4.3-10.4-11.2-10.4H2575v20.7h25.5
		C2607.3,5229.5,2611.6,5225.2,2611.6,5219.2z M2613.5,5258.1c0-6-4.3-11.2-12.3-11.2H2575v22.2h26.2
		C2608.9,5269.1,2613.5,5264.9,2613.5,5258.1z"
    />
    <path
      class="st4"
      d="M2644.9,5239.1c0-28.7,21-49.3,49.8-49.3c28.9,0,49.9,20.6,49.9,49.3s-21,49.3-49.9,49.3
		C2665.9,5288.4,2644.9,5267.8,2644.9,5239.1z M2723.7,5239.1c0-17.9-11.4-31.3-29-31.3s-28.9,13.4-28.9,31.3
		c0,17.7,11.3,31.3,28.9,31.3S2723.7,5256.8,2723.7,5239.1z"
    />
    <path
      class="st4"
      d="M1219.5,5429.7v-95.4h50.2c18.2,0,27.5,11.6,27.5,24.3c0,12-7.4,20-16.4,21.9c10.2,1.6,18.3,11.4,18.3,23.5
		c0,14.3-9.6,25.7-27.7,25.7H1219.5z M1276.4,5362.2c0-6-4.3-10.4-11.2-10.4h-25.5v20.7h25.5
		C1272.1,5372.5,1276.4,5368.2,1276.4,5362.2z M1278.3,5401.1c0-6-4.3-11.2-12.3-11.2h-26.2v22.2h26.2
		C1273.7,5412.1,1278.3,5407.9,1278.3,5401.1z"
    />
    <path
      class="st4"
      d="M1314.3,5429.7v-95.4h67.5v17.9h-47.2v20.2h46.2v17.9h-46.2v21.6h47.2v17.9H1314.3z"
    />
    <path
      class="st4"
      d="M1467.3,5334.3v17.9H1418v16.9h24.7c20.3,0,31.6,13.9,31.6,30.3c0,16.4-11.2,30.3-31.6,30.3h-45v-95.4H1467.3z
		 M1418,5386.9v24.9h22c7.9,0,13.6-4.9,13.6-12.4c0-7.7-5.7-12.4-13.6-12.4H1418z"
    />
    <path
      class="st4"
      d="M1523.5,5429.7v-95.4h44.6c20.7,0,32,14,32,30.7c0,16.6-11.4,30.7-32,30.7h-24.3v33.9H1523.5z M1579.4,5365
		c0-8-6-12.9-14-12.9h-21.6v25.7h21.6C1573.4,5377.9,1579.4,5372.9,1579.4,5365z"
    />
    <path
      class="st4"
      d="M1678.5,5429.7l-5.9-16.2h-40.9l-6,16.2h-23.2l36.9-95.4h25.5l36.8,95.4H1678.5z M1652.2,5354.6l-14.9,41h29.7
		L1652.2,5354.6z"
    />
    <path
      class="st4"
      d="M1704,5416.1l10.6-13.6c6.6,6.9,18.6,10.9,27.9,10.9c12.6,0,19.9-5,19.9-12.2c0-7.6-6.7-11-21-11H1722v-17.9
		h19.3c11.3,0,19.4-3.1,19.4-10.2c0-7.6-8.6-11.3-19.4-11.3c-9.3,0-19.2,3.4-25.9,9.9l-10.2-12.7c7.7-8.7,21.3-15.2,38-15.2
		c22.3,0,37.8,10,37.8,25.9c0,12-10.3,19.9-20.7,21.7c9.6,1,22.2,8.6,22.2,22.9c0,16.4-16.4,28-39.2,28
		C1725.7,5431.4,1711,5424.7,1704,5416.1z"
    />
    <path
      class="st4"
      d="M1797.8,5429.7v-95.4h44.6c20.7,0,32,14,32,30.7c0,16.6-11.4,30.7-32,30.7h-24.3v33.9H1797.8z M1853.7,5365
		c0-8-6-12.9-14-12.9h-21.6v25.7h21.6C1847.7,5377.9,1853.7,5372.9,1853.7,5365z"
    />
    <path
      class="st4"
      d="M1952.8,5429.7l-5.9-16.2H1906l-6,16.2h-23.2l36.9-95.4h25.5l36.8,95.4H1952.8z M1926.5,5354.6l-14.9,41h29.7
		L1926.5,5354.6z"
    />
    <path
      class="st4"
      d="M2054.5,5334.3v17.9h-49.3v16.9h24.7c20.3,0,31.6,13.9,31.6,30.3c0,16.4-11.2,30.3-31.6,30.3h-45v-95.4H2054.5
		z M2005.1,5386.9v24.9h22c7.9,0,13.6-4.9,13.6-12.4c0-7.7-5.7-12.4-13.6-12.4H2005.1z"
    />
    <path
      class="st4"
      d="M2069.5,5382.1c0-28.7,21-49.3,49.8-49.3c28.9,0,49.9,20.6,49.9,49.3s-21,49.3-49.9,49.3
		C2090.5,5431.4,2069.5,5410.8,2069.5,5382.1z M2148.3,5382.1c0-17.9-11.4-31.3-29-31.3s-28.9,13.4-28.9,31.3
		c0,17.7,11.3,31.3,28.9,31.3S2148.3,5399.8,2148.3,5382.1z"
    />
    <path
      class="st4"
      d="M2205.5,5429.7v-77.5h-27.9v-17.9h76.1v17.9h-27.7v77.5H2205.5z"
    />
    <path
      class="st4"
      d="M2284.7,5361c0,12.4,6.4,17.3,17.4,17.3c6.9,0,13.2-1.1,18.2-3.1v-40.9h20.3v95.4h-20.3v-36.6
		c-6.1,1.9-13.3,3.1-20.6,3.1c-24.3,0-35.5-14-35.5-35.2v-26.7h20.5V5361z"
    />
    <path
      class="st4"
      d="M2359.5,5429.7v-95.4h20.3v61.6l44.2-61.6h20.9v95.4h-20.3v-63.9l-45.5,63.9H2359.5z"
    />
    <path
      class="st4"
      d="M2520.4,5429.7l-28.9-38.2l-7.4,8.9v29.3h-20.3v-95.4h20.3v42.6l33.7-42.6h25l-37.9,44.8l40.5,50.6H2520.4z"
    />
    <path
      class="st4"
      d="M2550.1,5382.1c0-28.7,21-49.3,49.8-49.3c28.9,0,49.9,20.6,49.9,49.3s-21,49.3-49.9,49.3
		C2571.1,5431.4,2550.1,5410.8,2550.1,5382.1z M2628.9,5382.1c0-17.9-11.4-31.3-29-31.3s-28.9,13.4-28.9,31.3
		c0,17.7,11.3,31.3,28.9,31.3S2628.9,5399.8,2628.9,5382.1z"
    />
    <path
      class="st4"
      d="M2664.1,5429.7v-95.4h50.2c18.2,0,27.5,11.6,27.5,24.3c0,12-7.4,20-16.4,21.9c10.2,1.6,18.3,11.4,18.3,23.5
		c0,14.3-9.6,25.7-27.7,25.7H2664.1z M2721,5362.2c0-6-4.3-10.4-11.2-10.4h-25.5v20.7h25.5C2716.7,5372.5,2721,5368.2,2721,5362.2z
		 M2722.9,5401.1c0-6-4.3-11.2-12.3-11.2h-26.2v22.2h26.2C2718.3,5412.1,2722.9,5407.9,2722.9,5401.1z"
    />
  </g>
</svg>
