<svg xmlns="http://www.w3.org/2000/svg" viewBox="0 0 581.8 581.8">
  <style>
    .st0 {
      fill: #f0db4e;
    }
    .st1 {
      fill: #2b2b2b;
    }
  </style>
  <path
    class="st0"
    d="M581.8 523.3c0 32.3-26.2 58.4-58.4 58.4h-465C26.2 581.8 0 555.6 0 523.3V58.4C0 26.2 26.2 0 58.4 0h464.9c32.3 0 58.4 26.2 58.4 58.4v464.9z"
  />
  <path
    class="st1"
    d="m158.3 400.8 24.5-43.1c10.3 9.9 23.7 19 41.9 19 24.9 0 41.1-16.6 41.1-42.3V174.7l26.4 15.9 29.8-64.9v209.5c0 62.4-38.7 91.3-92.9 91.3-26.5 0-51.8-7.1-70.8-25.7zM354.4 392.5l26.1-40.7c14.6 16.2 37.5 28.1 63.6 28.1 23.3 0 36-13 36-29.2 0-46.2-117.8-30.4-117.8-119.7 0-41.5 32.4-77.1 86.9-77.1 32 0 59.7 10.3 79.8 29.2l-25.3 39.5c-15.8-15-36-22.1-56.5-22.1-19 0-30.8 10.7-30.8 26.9 0 41.1 117.4 30 117.4 119 0 46.2-31.6 80.2-89.3 80.2-40-.1-69.2-13.1-90.1-34.1zM158.3 536.6v-74.7h37.4c16.8 0 26 11.3 26 24.9 0 13.4-9.2 24.8-26 24.8h-18.1v25.1h-19.3zm43.8-49.8c0-5.2-3.8-8.1-9-8.1h-15.6v16h15.6c5.2 0 9-2.9 9-7.9zM234.8 536.6v-74.7h54.8v16.8h-35.5v11.6h34.7v16.8h-34.7v12.7h35.5v16.8h-54.8zM356.1 536.6l-31.6-43.2v43.2h-19.3v-74.7H325l30.2 41.1v-41.1h19.4v74.7h-18.5zM390.3 536.6v-15.3l31.8-42.6h-31.8v-16.8h57.2v15.3l-31.9 42.6h32.7v16.8h-58zM514.6 536.6l-3.7-10.8h-29.5l-3.7 10.8h-21.8l28.1-74.7h24.2l28.2 74.7h-21.8zm-18.5-55.7-9.5 28.1h19l-9.5-28.1z"
  />
</svg>
