<svg
  xmlns="http://www.w3.org/2000/svg"
  viewBox="0 0 3061.4 5669.3"
  style="enable-background: new 0 0 3061.4 5669.3"
  xml:space="preserve"
>
  <style>
    .st0 {
      fill: #fffa94;
    }
    .st1 {
      fill: #f4ca45;
    }
    .st2 {
      fill: #ffe35a;
    }
    .st3 {
      fill: #353535;
    }
    .st4 {
      fill: #fff;
    }
  </style>
  <path class="st0" d="M0 0h3061.4v1855.2H0z" />
  <path class="st1" d="m1530.7 1324-856.3 6.7L0 3128.2V0h3061.4v180z" />
  <path
    class="st2"
    d="m1268.6 2056.2-411.7.1L294 3558.2H0l972.5-2570L0 988V724.9h3061.4z"
  />
  <path class="st1" d="m1030.4 1329.4 129.1-341.2h1901.9v341.2z" />
  <path class="st0" d="M0 3814.1h3061.4v1855.2H0z" />
  <path class="st1" d="m1530.7 4345.3 856.4-6.7 674.3-1797.5v3128.2H0v-180z" />
  <path
    class="st2"
    d="m1792.8 3613.1 411.7-.1 562.9-1501.9h294l-972.5 2570 972.5.2v263.1H0z"
  />
  <path class="st1" d="m2031 4339.9-129.1 341.2H0v-341.2z" />
  <path
    class="st3"
    d="m935.9 2990.2 75.4-132.6c31.6 30.4 73 58.4 128.9 58.4 76.6 0 126.5-51.1 126.5-130.1v-491.6l81.1 48.9 91.6-199.9v644.9c0 192.2-119.2 281-285.8 281-81.5 0-159.3-21.9-217.7-79zM1539.2 2964.6l80.3-125.3c45 49.9 115.5 86.4 195.8 86.4 71.8 0 110.7-40.1 110.7-90 0-142.3-362.5-93.7-362.5-368.5 0-127.7 99.7-237.2 267.6-237.2 98.5 0 183.7 31.6 245.7 90l-77.8 121.6c-48.7-46.2-110.7-68.1-173.9-68.1-58.4 0-94.9 32.8-94.9 82.7 0 126.5 361.2 92.4 361.2 366.1 0 142.3-97.3 246.9-274.9 246.9-122.9 0-212.9-40.1-277.3-104.6zM935.9 3407.9V3178H1051c51.7 0 80 34.8 80 76.5 0 41.4-28.3 76.2-80 76.2h-55.8v77.2h-59.3zm134.7-153.3c0-15.9-11.7-24.8-27.6-24.8h-47.9v49.3h47.9c15.9-.1 27.6-9 27.6-24.5zM1171.3 3407.9V3178h168.6v51.7h-109.3v35.8h106.9v51.7h-106.9v39h109.3v51.7h-168.6zM1544.6 3407.9l-97.2-133v133h-59.3V3178h61l93.1 126.5V3178h59.6v229.9h-57.2zM1649.7 3407.9v-47.2l97.9-131h-97.9V3178h176.1v47.2l-98.2 131h100.6v51.7h-178.5zM2032.3 3407.9l-11.4-33.1h-90.7l-11.4 33.1h-67.2l86.5-229.9h74.5l86.9 229.9h-67.2zm-56.8-171.3-29.3 86.5h58.6l-29.3-86.5z"
  />
  <path
    class="st4"
    d="M820.7 5286.7v-77.5h-45v77.5h-20.3v-95.4h85.8v95.4h-20.5zM859.9 5286.7v-95.4h67.5v17.9h-47.2v20.2h46.2v17.9h-46.2v21.6h47.2v17.9h-67.5zM1008.6 5286.7v-40h-45v40h-20.3v-95.4h20.3v37.5h45v-37.5h20.4v95.4h-20.4zM1041.2 5273.1l10.6-13.6c6.6 6.9 18.6 10.9 27.9 10.9 12.6 0 19.9-5 19.9-12.2 0-7.6-6.7-11-21-11h-19.3v-17.9h19.3c11.3 0 19.4-3.1 19.4-10.2 0-7.6-8.6-11.3-19.4-11.3-9.3 0-19.2 3.4-25.9 9.9l-10.2-12.7c7.7-8.7 21.3-15.2 38-15.2 22.3 0 37.8 10 37.8 25.9 0 12-10.3 19.9-20.7 21.7 9.6 1 22.2 8.6 22.2 22.9 0 16.4-16.4 28-39.2 28-17.7.1-32.4-6.6-39.4-15.2zM1135 5286.7v-95.4h67.5v17.9h-47.2v20.2h46.2v17.9h-46.2v21.6h47.2v17.9H1135zM1283.7 5286.7v-40h-45v40h-20.3v-95.4h20.3v37.5h45v-37.5h20.4v95.4h-20.4zM1318.3 5239.1c0-29.3 22.2-49.3 50.8-49.3 21 0 33.2 11.4 39.9 23.3l-17.4 8.6c-4-7.7-12.6-13.9-22.5-13.9-17.3 0-29.9 13.3-29.9 31.3s12.6 31.3 29.9 31.3c9.9 0 18.4-6 22.5-13.9l17.4 8.4c-6.9 11.9-18.9 23.5-39.9 23.5-28.6 0-50.8-20-50.8-49.3zM1477.8 5286.7l-28.9-38.2-7.4 8.9v29.3h-20.3v-95.4h20.3v42.6l33.7-42.6h25l-37.9 44.8 40.5 50.6h-25zM1507.5 5239.1c0-28.7 21-49.3 49.8-49.3 28.9 0 49.9 20.6 49.9 49.3s-21 49.3-49.9 49.3c-28.8 0-49.8-20.6-49.8-49.3zm78.8 0c0-17.9-11.4-31.3-29-31.3s-28.9 13.4-28.9 31.3c0 17.7 11.3 31.3 28.9 31.3s29-13.6 29-31.3zM1621.5 5286.7v-95.4h67.5v17.9h-47.2v20.2h46.2v17.9h-46.2v21.6h47.2v17.9h-67.5zM1736.9 5239.1c0-29.3 22.2-49.3 50.8-49.3 21 0 33.2 11.4 39.9 23.3l-17.4 8.6c-4-7.7-12.6-13.9-22.5-13.9-17.3 0-29.9 13.3-29.9 31.3s12.6 31.3 29.9 31.3c9.9 0 18.4-6 22.5-13.9l17.4 8.4c-6.9 11.9-18.9 23.5-39.9 23.5-28.7 0-50.8-20-50.8-49.3zM1835.1 5239.1c0-28.7 21-49.3 49.8-49.3 28.9 0 49.9 20.6 49.9 49.3s-21 49.3-49.9 49.3c-28.8 0-49.8-20.6-49.8-49.3zm78.8 0c0-17.9-11.4-31.3-29-31.3s-28.9 13.4-28.9 31.3c0 17.7 11.3 31.3 28.9 31.3s29-13.6 29-31.3zM1944.5 5239.1c0-28.7 21-49.3 49.8-49.3 28.9 0 49.9 20.6 49.9 49.3s-21 49.3-49.9 49.3c-28.8 0-49.8-20.6-49.8-49.3zm78.8 0c0-17.9-11.4-31.3-29-31.3s-28.9 13.4-28.9 31.3c0 17.7 11.3 31.3 28.9 31.3s29-13.6 29-31.3zM2128.1 5191.3v17.9h-49.3v16.9h24.7c20.3 0 31.6 13.9 31.6 30.3s-11.2 30.3-31.6 30.3h-45v-95.4h69.6zm-49.3 52.6v24.9h22c7.9 0 13.6-4.9 13.6-12.4 0-7.7-5.7-12.4-13.6-12.4h-22zM2269.4 5191.3v77.5h8.7v35.5h-20.5v-17.6h-110v-95.4h20.3v77.5h30.3v-77.5h20.4v77.5h30.2v-77.5h20.6zM2289.9 5286.7v-95.4h67.5v17.9h-47.2v20.2h46.2v17.9h-46.2v21.6h47.2v17.9h-67.5zM2368.6 5239.1c0-29.3 22.2-49.3 50.8-49.3 21 0 33.2 11.4 39.9 23.3l-17.4 8.6c-4-7.7-12.6-13.9-22.5-13.9-17.3 0-29.9 13.3-29.9 31.3s12.6 31.3 29.9 31.3c9.9 0 18.4-6 22.5-13.9l17.4 8.4c-6.9 11.9-18.9 23.5-39.9 23.5-28.6 0-50.8-20-50.8-49.3zM2493.5 5286.7v-77.5h-27.9v-17.9h76.1v17.9H2514v77.5h-20.5zM2554.7 5286.7v-95.4h50.2c18.2 0 27.5 11.6 27.5 24.3 0 12-7.4 20-16.4 21.9 10.2 1.6 18.3 11.4 18.3 23.5 0 14.3-9.6 25.7-27.7 25.7h-51.9zm56.9-67.5c0-6-4.3-10.4-11.2-10.4H2575v20.7h25.5c6.8 0 11.1-4.3 11.1-10.3zm1.9 38.9c0-6-4.3-11.2-12.3-11.2H2575v22.2h26.2c7.7 0 12.3-4.2 12.3-11zM2644.9 5239.1c0-28.7 21-49.3 49.8-49.3 28.9 0 49.9 20.6 49.9 49.3s-21 49.3-49.9 49.3c-28.8 0-49.8-20.6-49.8-49.3zm78.8 0c0-17.9-11.4-31.3-29-31.3s-28.9 13.4-28.9 31.3c0 17.7 11.3 31.3 28.9 31.3s29-13.6 29-31.3zM1219.5 5429.7v-95.4h50.2c18.2 0 27.5 11.6 27.5 24.3 0 12-7.4 20-16.4 21.9 10.2 1.6 18.3 11.4 18.3 23.5 0 14.3-9.6 25.7-27.7 25.7h-51.9zm56.9-67.5c0-6-4.3-10.4-11.2-10.4h-25.5v20.7h25.5c6.9 0 11.2-4.3 11.2-10.3zm1.9 38.9c0-6-4.3-11.2-12.3-11.2h-26.2v22.2h26.2c7.7 0 12.3-4.2 12.3-11zM1314.3 5429.7v-95.4h67.5v17.9h-47.2v20.2h46.2v17.9h-46.2v21.6h47.2v17.9h-67.5zM1467.3 5334.3v17.9H1418v16.9h24.7c20.3 0 31.6 13.9 31.6 30.3s-11.2 30.3-31.6 30.3h-45v-95.4h69.6zm-49.3 52.6v24.9h22c7.9 0 13.6-4.9 13.6-12.4 0-7.7-5.7-12.4-13.6-12.4h-22zM1523.5 5429.7v-95.4h44.6c20.7 0 32 14 32 30.7 0 16.6-11.4 30.7-32 30.7h-24.3v33.9h-20.3zm55.9-64.7c0-8-6-12.9-14-12.9h-21.6v25.7h21.6c8 .1 14-4.9 14-12.8zM1678.5 5429.7l-5.9-16.2h-40.9l-6 16.2h-23.2l36.9-95.4h25.5l36.8 95.4h-23.2zm-26.3-75.1-14.9 41h29.7l-14.8-41zM1704 5416.1l10.6-13.6c6.6 6.9 18.6 10.9 27.9 10.9 12.6 0 19.9-5 19.9-12.2 0-7.6-6.7-11-21-11H1722v-17.9h19.3c11.3 0 19.4-3.1 19.4-10.2 0-7.6-8.6-11.3-19.4-11.3-9.3 0-19.2 3.4-25.9 9.9l-10.2-12.7c7.7-8.7 21.3-15.2 38-15.2 22.3 0 37.8 10 37.8 25.9 0 12-10.3 19.9-20.7 21.7 9.6 1 22.2 8.6 22.2 22.9 0 16.4-16.4 28-39.2 28-17.6.1-32.3-6.6-39.3-15.2zM1797.8 5429.7v-95.4h44.6c20.7 0 32 14 32 30.7 0 16.6-11.4 30.7-32 30.7h-24.3v33.9h-20.3zm55.9-64.7c0-8-6-12.9-14-12.9h-21.6v25.7h21.6c8 .1 14-4.9 14-12.8zM1952.8 5429.7l-5.9-16.2H1906l-6 16.2h-23.2l36.9-95.4h25.5l36.8 95.4h-23.2zm-26.3-75.1-14.9 41h29.7l-14.8-41zM2054.5 5334.3v17.9h-49.3v16.9h24.7c20.3 0 31.6 13.9 31.6 30.3s-11.2 30.3-31.6 30.3h-45v-95.4h69.6zm-49.4 52.6v24.9h22c7.9 0 13.6-4.9 13.6-12.4 0-7.7-5.7-12.4-13.6-12.4h-22zM2069.5 5382.1c0-28.7 21-49.3 49.8-49.3 28.9 0 49.9 20.6 49.9 49.3s-21 49.3-49.9 49.3c-28.8 0-49.8-20.6-49.8-49.3zm78.8 0c0-17.9-11.4-31.3-29-31.3s-28.9 13.4-28.9 31.3c0 17.7 11.3 31.3 28.9 31.3s29-13.6 29-31.3zM2205.5 5429.7v-77.5h-27.9v-17.9h76.1v17.9H2226v77.5h-20.5zM2284.7 5361c0 12.4 6.4 17.3 17.4 17.3 6.9 0 13.2-1.1 18.2-3.1v-40.9h20.3v95.4h-20.3v-36.6c-6.1 1.9-13.3 3.1-20.6 3.1-24.3 0-35.5-14-35.5-35.2v-26.7h20.5v26.7zM2359.5 5429.7v-95.4h20.3v61.6l44.2-61.6h20.9v95.4h-20.3v-63.9l-45.5 63.9h-19.6zM2520.4 5429.7l-28.9-38.2-7.4 8.9v29.3h-20.3v-95.4h20.3v42.6l33.7-42.6h25l-37.9 44.8 40.5 50.6h-25zM2550.1 5382.1c0-28.7 21-49.3 49.8-49.3 28.9 0 49.9 20.6 49.9 49.3s-21 49.3-49.9 49.3c-28.8 0-49.8-20.6-49.8-49.3zm78.8 0c0-17.9-11.4-31.3-29-31.3s-28.9 13.4-28.9 31.3c0 17.7 11.3 31.3 28.9 31.3s29-13.6 29-31.3zM2664.1 5429.7v-95.4h50.2c18.2 0 27.5 11.6 27.5 24.3 0 12-7.4 20-16.4 21.9 10.2 1.6 18.3 11.4 18.3 23.5 0 14.3-9.6 25.7-27.7 25.7h-51.9zm56.9-67.5c0-6-4.3-10.4-11.2-10.4h-25.5v20.7h25.5c6.9 0 11.2-4.3 11.2-10.3zm1.9 38.9c0-6-4.3-11.2-12.3-11.2h-26.2v22.2h26.2c7.7 0 12.3-4.2 12.3-11z"
  />
</svg>
