<?xml version="1.0" encoding="UTF-8" standalone="no"?>
<svg
   xmlns:dc="http://purl.org/dc/elements/1.1/"
   xmlns:cc="http://creativecommons.org/ns#"
   xmlns:rdf="http://www.w3.org/1999/02/22-rdf-syntax-ns#"
   xmlns:svg="http://www.w3.org/2000/svg"
   xmlns="http://www.w3.org/2000/svg"
   viewBox="0 0 775.67865 775.67865"
   height="775.67865"
   width="775.67865"
   xml:space="preserve"
   id="svg2"
   version="1.1"><metadata
     id="metadata8"><rdf:RDF><cc:Work
         rdf:about=""><dc:format>image/svg+xml</dc:format><dc:type
           rdf:resource="http://purl.org/dc/dcmitype/StillImage" /></cc:Work></rdf:RDF></metadata><defs
     id="defs6"><clipPath
       id="clipPath18"
       clipPathUnits="userSpaceOnUse"><path
         id="path16"
         d="M 0,581.759 H 581.759 V 0 H 0 Z" /></clipPath></defs><g
     transform="matrix(1.3333333,0,0,-1.3333333,0,775.67867)"
     id="g10"><g
       id="g12"><g
         clip-path="url(#clipPath18)"
         id="g14"><g
           transform="translate(581.7593,58.4131)"
           id="g20"><path
             id="path22"
             style="fill:#f0db4e;fill-opacity:1;fill-rule:nonzero;stroke:none"
             d="m 0,0 c 0,-32.262 -26.151,-58.413 -58.413,-58.413 h -464.933 c -32.261,0 -58.413,26.151 -58.413,58.413 v 464.933 c 0,32.261 26.152,58.413 58.413,58.413 H -58.413 C -26.151,523.346 0,497.194 0,464.933 Z" /></g><g
           transform="translate(158.3345,180.9111)"
           id="g24"><path
             id="path26"
             style="fill:#2b2b2b;fill-opacity:1;fill-rule:nonzero;stroke:none"
             d="m 0,0 24.503,43.078 c 10.275,-9.881 23.713,-18.971 41.892,-18.971 24.898,0 41.101,16.599 41.101,42.289 v 159.717 l 26.353,-15.905 29.767,64.944 V 65.605 c 0,-62.443 -38.731,-91.293 -92.874,-91.293 C 44.263,-25.688 18.97,-18.574 0,0" /></g><g
           transform="translate(354.3579,189.21)"
           id="g28"><path
             id="path30"
             style="fill:#2b2b2b;fill-opacity:1;fill-rule:nonzero;stroke:none"
             d="m 0,0 26.083,40.707 c 14.624,-16.203 37.545,-28.06 63.629,-28.06 23.317,0 35.964,13.042 35.964,29.245 0,46.241 -117.773,30.431 -117.773,119.749 0,41.497 32.408,77.066 86.946,77.066 32.013,0 59.675,-10.276 79.832,-29.246 L 149.389,169.94 c -15.81,15.018 -35.966,22.132 -56.517,22.132 -18.97,0 -30.824,-10.671 -30.824,-26.874 0,-41.103 117.376,-30.036 117.376,-118.958 C 179.424,0 147.807,-33.987 90.105,-33.987 50.19,-33.987 20.946,-20.944 0,0" /></g><g
           transform="translate(202.1265,95.001)"
           id="g32"><path
             id="path34"
             style="fill:#2b2b2b;fill-opacity:1;fill-rule:nonzero;stroke:none"
             d="M 0,0 C 0,5.152 -3.808,8.063 -8.96,8.063 H -24.528 V -7.952 H -8.96 C -3.808,-7.952 0,-5.04 0,0 M -43.792,-49.84 V 24.864 H -6.384 C 10.416,24.864 19.6,13.552 19.6,0 19.6,-13.44 10.416,-24.752 -6.384,-24.752 H -24.528 V -49.84 Z" /></g><g
           transform="translate(234.8296,45.1611)"
           id="g36"><path
             id="path38"
             style="fill:#2b2b2b;fill-opacity:1;fill-rule:nonzero;stroke:none"
             d="M 0,0 V 74.704 H 54.768 V 57.903 H 19.264 V 46.256 h 34.719 v -16.8 H 19.264 V 16.8 H 54.768 V 0 Z" /></g><g
           transform="translate(356.1245,45.1611)"
           id="g40"><path
             id="path42"
             style="fill:#2b2b2b;fill-opacity:1;fill-rule:nonzero;stroke:none"
             d="M 0,0 -31.584,43.231 V 0 h -19.265 v 74.704 h 19.825 L -0.785,33.6 V 74.704 H 18.592 L 18.592,0 Z" /></g><g
           transform="translate(390.2827,45.1611)"
           id="g44"><path
             id="path46"
             style="fill:#2b2b2b;fill-opacity:1;fill-rule:nonzero;stroke:none"
             d="M 0,0 V 15.344 L 31.809,57.903 H 0 V 74.704 H 57.232 V 59.359 L 25.312,16.8 H 58.016 V 0 Z" /></g><g
           transform="translate(496.1216,100.8252)"
           id="g48"><path
             id="path50"
             style="fill:#2b2b2b;fill-opacity:1;fill-rule:nonzero;stroke:none"
             d="M 0,0 -9.52,-28.112 H 9.521 Z m 18.48,-55.664 -3.696,10.752 h -29.456 l -3.696,-10.752 h -21.84 L -12.096,19.04 H 12.097 L 40.32,-55.664 Z" /></g></g></g></g></svg>